<svg xmlns="http://www.w3.org/2000/svg" width="17.988" height="13.966" viewBox="0 0 17.988 13.966">
  <path fill="#d22856" d="M14.914 1.814C16.111.816 15.816 0 14.257 0H3.731c-1.56 0-1.854.816-.657 1.814l3.742 3.118c1.197.998 3.158.998 4.355 0l3.743-3.118z"/>
  <path fill="#d22856" d="M11.913 7.044c-1.198.998-2.195 1.825-2.218 1.836l-.02.013c-.074.056-.152.102-.235.136-.033.015-.066.034-.1.048-.11.034-.223.058-.335.059-.003 0-.007.001-.01.001h-.002c-.003 0-.007-.001-.01-.001-.113-.002-.224-.025-.335-.059-.034-.014-.068-.033-.1-.048-.083-.034-.16-.08-.235-.136l-.02-.013c-.022-.012-1.02-.838-2.218-1.836L2.178 3.796C.979 2.798 0 3.257 0 4.816v6.315c0 1.56 1.275 2.835 2.835 2.835h12.318c1.56 0 2.835-1.275 2.835-2.835V4.816c0-1.559-.979-2.018-2.178-1.02l-3.897 3.248z"/>
</svg>
