<svg xmlns="http://www.w3.org/2000/svg">
  <symbol id="logo-header-desktop" viewBox="0 0 146.3 40.375">
    <g>
      <path d="M71.874 18.661c0-.708.58-1.288 1.256-1.288h7.18c5.087 0 8.436 2.704 8.436 7.146v.064c0 4.861-4.057 7.373-8.854 7.373h-5.475v6.825c0 .708-.58 1.288-1.288 1.288-.676 0-1.256-.58-1.256-1.288v-20.12zm8.114 10.98c3.734 0 6.182-1.996 6.182-4.959v-.063c0-3.22-2.414-4.894-6.053-4.894h-5.699v9.917h5.57v-.001zM93.603 18.5c0-.708.579-1.288 1.255-1.288.709 0 1.288.58 1.288 1.288v20.283c0 .708-.579 1.287-1.288 1.287-.676 0-1.255-.579-1.255-1.287V18.5zM102.744 18.532c0-.676.58-1.256 1.256-1.256h.354c.58 0 .935.29 1.288.74l13.684 17.45V18.468c0-.676.547-1.256 1.256-1.256.676 0 1.224.58 1.224 1.256v20.349c0 .676-.481 1.19-1.158 1.19h-.129c-.548 0-.935-.321-1.319-.772l-13.975-17.868v17.45c0 .676-.547 1.256-1.256 1.256-.676 0-1.223-.58-1.223-1.256V18.532h-.002zM128.173 18.5c0-.708.58-1.288 1.257-1.288.708 0 1.286.58 1.286 1.288v12.331l12.848-13.168c.29-.257.579-.451.998-.451.676 0 1.225.612 1.225 1.256 0 .354-.162.644-.42.901l-7.984 7.92 8.564 10.561c.225.291.354.547.354.935 0 .676-.578 1.288-1.286 1.288-.483 0-.806-.258-1.03-.58l-8.402-10.463-4.863 4.861v4.894c0 .708-.578 1.288-1.286 1.288-.677 0-1.257-.58-1.257-1.288V18.5h-.004z"/>
    </g>
    <path fill="#D22856" d="M98.498 9.875c-2.002 0-3.623-1.623-3.623-3.624 0 2.001-1.623 3.624-3.625 3.624 2.002 0 3.625 1.623 3.625 3.624 0-2.001 1.621-3.624 3.623-3.624z"/>
    <g class="logo-header-desktop__glasses">
      <path d="M43.094 19.313c.246 0 .489.014.73.033-.437-.728-1.227-1.221-2.136-1.221-.877 0-1.614-.568-1.884-1.354-.727.208-1.425.482-2.089.816.062.017.122.038.188.038 1.104 0 2 .896 2 2 0 .096-.015.188-.028.281 1-.382 2.084-.593 3.219-.593z"/>
      <path d="M60.462 28.016c-.002-.009-5.175-21.365-5.175-21.365C54.926 4.303 52.694 0 46.688 0c-.829 0-1.5.671-1.5 1.5s.671 1.5 1.5 1.5c4.856 0 5.575 3.729 5.639 4.143l4.767 19.701h-2.073c-.445-3.557-2.453-6.628-5.305-8.522-.897.379-1.529 1.269-1.529 2.303 0 .088-.015.171-.026.256 1.991 1.358 3.415 3.489 3.829 5.964.082.489.135.988.135 1.5s-.053 1.012-.135 1.5c-.716 4.272-4.421 7.531-8.896 7.531-4.475 0-8.181-3.259-8.896-7.531-.082-.488-.135-.988-.135-1.5s.053-1.011.135-1.5c.147-.878.427-1.711.808-2.483-1.034-.078-1.852-.932-1.852-1.985 0-.189-.077-.357-.192-.489-.938 1.469-1.569 3.15-1.795 4.958h-1.82c-.741-5.927-5.802-10.531-11.927-10.531S6.235 20.917 5.493 26.844H3.42L8.187 7.143C8.25 6.729 8.97 3 13.826 3c.829 0 1.5-.671 1.5-1.5s-.671-1.5-1.5-1.5C7.82 0 5.588 4.303 5.227 6.651c0 0-5.173 21.356-5.175 21.365-.266 1.109.531 1.826 1.426 1.826.012 0 .023.004.036.004h3.982c.079.628.215 1.237.387 1.831.059-.106.102-.224.102-.354 0-1.104.896-2 2-2 .166 0 .324.025.478.063-.043-.343-.074-.688-.074-1.042 0-.512.053-1.011.135-1.5.715-4.271 4.421-7.531 8.896-7.531s8.18 3.26 8.896 7.531c.082.489.135.988.135 1.5s-.053 1.012-.135 1.5c-.715 4.272-4.421 7.531-8.896 7.531-2.022 0-3.883-.67-5.386-1.794-.35.302-.8.491-1.299.491-.413 0-.749.336-.749.748 0 .29-.065.564-.176.812 2.075 1.708 4.722 2.743 7.614 2.743 6.125 0 11.185-4.604 11.927-10.53h1.814c.742 5.926 5.802 10.53 11.927 10.53s11.186-4.604 11.927-10.53H59c.012 0 .023-.004.036-.004.895.001 1.692-.716 1.426-1.825z"/>
    </g>
    <path fill="#D22856" d="M50.686 16.125c-2.485 0-4.499-2.014-4.499-4.499 0 2.485-2.014 4.499-4.499 4.499 2.485 0 4.499 2.014 4.499 4.499 0-2.485 2.013-4.499 4.499-4.499zM37.904 19.626c-1.519 0-2.749-1.23-2.749-2.749 0 1.519-1.23 2.749-2.749 2.749 1.519 0 2.749 1.229 2.749 2.749 0-1.52 1.231-2.749 2.749-2.749zM10.734 34.072c-1.519 0-2.749-1.23-2.749-2.75 0 1.52-1.23 2.75-2.749 2.75 1.519 0 2.749 1.229 2.749 2.748 0-1.517 1.23-2.748 2.749-2.748z"/>
  </symbol>

  <symbol id="logo-header-tablet" viewBox="0 0 146.3 40.375">
    <g>
      <path d="M71.874 18.661c0-.708.58-1.288 1.256-1.288h7.18c5.087 0 8.436 2.704 8.436 7.146v.064c0 4.861-4.057 7.373-8.854 7.373h-5.475v6.825c0 .708-.58 1.288-1.288 1.288-.676 0-1.256-.58-1.256-1.288v-20.12zm8.114 10.98c3.734 0 6.182-1.996 6.182-4.959v-.063c0-3.22-2.414-4.894-6.053-4.894h-5.699v9.917h5.57v-.001zM93.603 18.5c0-.708.579-1.288 1.255-1.288.709 0 1.288.58 1.288 1.288v20.283c0 .708-.579 1.287-1.288 1.287-.676 0-1.255-.579-1.255-1.287V18.5zM102.744 18.532c0-.676.58-1.256 1.256-1.256h.354c.58 0 .935.29 1.288.74l13.684 17.45V18.468c0-.676.547-1.256 1.256-1.256.676 0 1.224.58 1.224 1.256v20.349c0 .676-.481 1.19-1.158 1.19h-.129c-.548 0-.935-.321-1.319-.772l-13.975-17.868v17.45c0 .676-.547 1.256-1.256 1.256-.676 0-1.223-.58-1.223-1.256V18.532h-.002zM128.173 18.5c0-.708.58-1.288 1.257-1.288.708 0 1.286.58 1.286 1.288v12.331l12.848-13.168c.29-.257.579-.451.998-.451.676 0 1.225.612 1.225 1.256 0 .354-.162.644-.42.901l-7.984 7.92 8.564 10.561c.225.291.354.547.354.935 0 .676-.578 1.288-1.286 1.288-.483 0-.806-.258-1.03-.58l-8.402-10.463-4.863 4.861v4.894c0 .708-.578 1.288-1.286 1.288-.677 0-1.257-.58-1.257-1.288V18.5h-.004z"/>
    </g>
    <path d="M60.462 28.016c-.002-.009-5.175-21.365-5.175-21.365C54.926 4.303 52.694 0 46.688 0c-.829 0-1.5.671-1.5 1.5s.671 1.5 1.5 1.5c4.856 0 5.575 3.729 5.639 4.143l4.767 19.701h-2.073c-.742-5.927-5.802-10.531-11.927-10.531s-11.186 4.604-11.927 10.531h-1.82c-.741-5.927-5.802-10.531-11.927-10.531S6.235 20.917 5.493 26.844H3.42L8.187 7.143C8.25 6.729 8.97 3 13.826 3c.829 0 1.5-.671 1.5-1.5s-.671-1.5-1.5-1.5C7.82 0 5.588 4.303 5.227 6.651c0 0-5.173 21.356-5.175 21.365-.266 1.109.531 1.826 1.426 1.826.012 0 .023.004.036.004h3.982c.741 5.926 5.802 10.53 11.927 10.53s11.185-4.604 11.927-10.53h1.814c.742 5.926 5.802 10.53 11.927 10.53s11.186-4.604 11.927-10.53H59c.012 0 .023-.004.036-.004.895 0 1.692-.717 1.426-1.826zm-34.147 1.828c-.715 4.272-4.421 7.531-8.896 7.531-4.475 0-8.18-3.259-8.896-7.531-.082-.488-.135-.988-.135-1.5s.053-1.011.135-1.5c.715-4.271 4.421-7.531 8.896-7.531 4.475 0 8.18 3.26 8.896 7.531.082.489.135.988.135 1.5s-.053 1.011-.135 1.5zm25.675 0c-.716 4.272-4.421 7.531-8.896 7.531-4.475 0-8.181-3.259-8.896-7.531-.082-.488-.135-.988-.135-1.5s.053-1.011.135-1.5c.716-4.271 4.421-7.531 8.896-7.531 4.475 0 8.181 3.26 8.896 7.531.082.489.135.988.135 1.5s-.053 1.011-.135 1.5z"/>
  </symbol>

  <symbol id="logo-header-mobile" viewBox="0 0 74.426 22.859">
    <g>
      <path d="M0 1.449C0 .741.58.161 1.256.161h7.18c5.087 0 8.436 2.704 8.436 7.147v.064c0 4.861-4.057 7.373-8.854 7.373H2.544v6.825c0 .708-.58 1.288-1.288 1.288C.58 22.859 0 22.279 0 21.571V1.449zm8.114 10.979c3.734 0 6.182-1.996 6.182-4.958v-.065c0-3.22-2.415-4.894-6.054-4.894H2.544v9.917h5.57zM21.729 1.288C21.729.58 22.308 0 22.983 0c.709 0 1.288.58 1.288 1.288v20.283c0 .708-.579 1.288-1.288 1.288-.676 0-1.255-.58-1.255-1.288V1.288zM30.87 1.32c0-.676.579-1.256 1.256-1.256h.354c.58 0 .934.29 1.288.74l13.684 17.45V1.256C47.451.58 47.998 0 48.707 0c.676 0 1.223.58 1.223 1.256v20.348c0 .676-.482 1.191-1.158 1.191h-.129c-.548 0-.934-.322-1.32-.772L33.349 4.153v17.45c0 .676-.547 1.256-1.255 1.256-.677 0-1.224-.58-1.224-1.256V1.32zM56.3 1.288C56.3.58 56.879 0 57.556 0c.708 0 1.287.58 1.287 1.288v12.331L71.689.451c.29-.258.58-.451.999-.451.676 0 1.224.612 1.224 1.256 0 .354-.161.644-.419.901l-7.984 7.92 8.564 10.561c.225.29.354.547.354.934 0 .676-.579 1.288-1.287 1.288-.483 0-.806-.258-1.03-.58l-8.403-10.463-4.862 4.861v4.894c0 .708-.579 1.288-1.287 1.288-.677 0-1.256-.58-1.256-1.288V1.288z"/>
    </g>
  </symbol>

  <symbol id="logo-footer-desktop" viewBox="0 0 146.3 40.375">
    <g>
      <path d="M71.874 18.661c0-.708.58-1.288 1.256-1.288h7.18c5.087 0 8.436 2.704 8.436 7.146v.063c0 4.86-4.057 7.373-8.854 7.373h-5.475v6.825c0 .708-.58 1.287-1.289 1.287-.676 0-1.256-.58-1.256-1.287l.002-20.119zm8.114 10.98c3.734 0 6.182-1.996 6.182-4.959v-.062c0-3.221-2.414-4.894-6.053-4.894h-5.699v9.917h5.57v-.002zM93.603 18.5c0-.708.579-1.288 1.255-1.288.709 0 1.288.58 1.288 1.288v20.283c0 .708-.579 1.287-1.288 1.287-.676 0-1.255-.579-1.255-1.287V18.5zM102.744 18.532c0-.676.58-1.256 1.256-1.256h.354c.58 0 .935.29 1.288.74l13.684 17.45V18.468c0-.676.547-1.256 1.256-1.256.676 0 1.225.58 1.225 1.256v20.349c0 .677-.48 1.19-1.158 1.19h-.129c-.548 0-.936-.321-1.318-.772l-13.976-17.867v17.449c0 .677-.547 1.257-1.257 1.257-.676 0-1.223-.58-1.223-1.257V18.532h-.002zM128.173 18.5c0-.708.58-1.288 1.257-1.288.708 0 1.286.58 1.286 1.288v12.331l12.848-13.168c.29-.257.579-.451.998-.451.676 0 1.225.612 1.225 1.256 0 .354-.162.644-.42.901l-7.984 7.92 8.564 10.561c.225.291.354.547.354.936 0 .676-.577 1.288-1.285 1.288-.482 0-.807-.259-1.03-.58l-8.401-10.464-4.863 4.861v4.895c0 .708-.578 1.288-1.286 1.288-.677 0-1.257-.58-1.257-1.288V18.5h-.006z"/>
    </g>
    <path fill="#D22856" d="M98.498 9.875c-2.002 0-3.623-1.623-3.623-3.624 0 2.001-1.623 3.624-3.625 3.624 2.002 0 3.625 1.623 3.625 3.624 0-2.001 1.621-3.624 3.623-3.624z"/>
    <g fill="#D22856">
      <path d="M43.094 19.313c.246 0 .489.014.73.033-.437-.728-1.227-1.221-2.136-1.221-.877 0-1.614-.568-1.884-1.354-.727.208-1.425.482-2.089.816.062.017.122.038.188.038 1.104 0 2 .896 2 2 0 .096-.015.188-.028.281 1-.382 2.084-.593 3.219-.593z"/>
      <path d="M60.462 28.016c-.002-.009-5.175-21.365-5.175-21.365C54.926 4.303 52.694 0 46.688 0c-.829 0-1.5.671-1.5 1.5s.671 1.5 1.5 1.5c4.856 0 5.575 3.729 5.639 4.143l4.767 19.701h-2.073c-.445-3.557-2.453-6.628-5.305-8.522-.897.379-1.529 1.269-1.529 2.303 0 .088-.015.171-.026.256 1.991 1.358 3.415 3.489 3.829 5.965.082.488.135.987.135 1.5 0 .512-.053 1.012-.135 1.5-.716 4.271-4.421 7.53-8.896 7.53-4.475 0-8.181-3.259-8.896-7.53-.082-.488-.135-.988-.135-1.5 0-.513.053-1.012.135-1.5.147-.879.427-1.712.808-2.484-1.034-.077-1.852-.932-1.852-1.984 0-.189-.077-.357-.192-.488-.938 1.469-1.569 3.149-1.795 4.957h-1.82c-.741-5.927-5.802-10.531-11.927-10.531S6.235 20.917 5.493 26.844H3.42L8.187 7.143C8.25 6.729 8.97 3 13.826 3c.829 0 1.5-.671 1.5-1.5s-.671-1.5-1.5-1.5C7.82 0 5.588 4.303 5.227 6.651c0 0-5.173 21.356-5.175 21.365-.266 1.109.531 1.826 1.426 1.826.012 0 .023.004.036.004h3.982c.079.629.215 1.237.387 1.831.059-.106.102-.224.102-.354 0-1.104.896-2 2-2 .166 0 .324.024.478.062-.043-.343-.074-.688-.074-1.042 0-.512.053-1.011.135-1.5.715-4.271 4.421-7.531 8.896-7.531s8.18 3.26 8.896 7.531c.082.489.135.988.135 1.5s-.053 1.012-.135 1.5c-.715 4.272-4.421 7.531-8.896 7.531-2.022 0-3.883-.67-5.386-1.794-.35.302-.8.491-1.299.491-.413 0-.749.336-.749.748 0 .289-.065.563-.176.812 2.075 1.708 4.722 2.743 7.614 2.743 6.125 0 11.185-4.604 11.927-10.529h1.814c.742 5.926 5.802 10.529 11.927 10.529s11.186-4.604 11.927-10.529H59c.012 0 .023-.005.036-.005.895.002 1.692-.715 1.426-1.824z"/>
    </g>
    <path fill="#283645" d="M50.686 16.125c-2.485 0-4.499-2.014-4.499-4.499 0 2.485-2.014 4.499-4.499 4.499 2.485 0 4.499 2.014 4.499 4.499 0-2.485 2.013-4.499 4.499-4.499zM37.904 19.626c-1.519 0-2.749-1.23-2.749-2.749 0 1.519-1.23 2.749-2.749 2.749 1.519 0 2.749 1.229 2.749 2.749 0-1.52 1.231-2.749 2.749-2.749zM10.734 34.072c-1.519 0-2.749-1.23-2.749-2.75 0 1.52-1.23 2.75-2.749 2.75 1.519 0 2.749 1.229 2.749 2.748 0-1.517 1.23-2.748 2.749-2.748z"/>
  </symbol>

  <symbol id="logo-footer-mobile" viewBox="0 0 146.3 40.375">
    <g>
      <path d="M71.874 18.661c0-.708.58-1.288 1.256-1.288h7.18c5.087 0 8.436 2.704 8.436 7.146v.063c0 4.86-4.057 7.373-8.854 7.373h-5.475v6.825c0 .708-.58 1.287-1.289 1.287-.676 0-1.256-.58-1.256-1.287l.002-20.119zm8.114 10.98c3.734 0 6.182-1.996 6.182-4.959v-.062c0-3.221-2.414-4.894-6.053-4.894h-5.699v9.917h5.57v-.002zM93.603 18.5c0-.708.579-1.288 1.255-1.288.709 0 1.288.58 1.288 1.288v20.283c0 .708-.579 1.287-1.288 1.287-.676 0-1.255-.579-1.255-1.287V18.5zM102.744 18.532c0-.676.58-1.256 1.256-1.256h.354c.58 0 .935.29 1.288.74l13.684 17.45V18.468c0-.676.547-1.256 1.256-1.256.676 0 1.225.58 1.225 1.256v20.349c0 .677-.48 1.19-1.158 1.19h-.129c-.548 0-.936-.321-1.318-.772l-13.976-17.867v17.449c0 .677-.547 1.257-1.257 1.257-.676 0-1.223-.58-1.223-1.257V18.532h-.002zM128.173 18.5c0-.708.58-1.288 1.257-1.288.708 0 1.286.58 1.286 1.288v12.331l12.848-13.16c.29-.257.579-.451.998-.451.676 0 1.225.612 1.225 1.256 0 .354-.162.644-.42.901l-7.984 7.92 8.564 10.561c.225.291.354.547.354.936 0 .676-.577 1.288-1.285 1.288-.482 0-.807-.259-1.03-.58l-8.401-10.464-4.863 4.861v4.895c0 .708-.578 1.288-1.286 1.288-.677 0-1.257-.58-1.257-1.288V18.5h-.006z"/>
    </g>
    <path fill="#D22856" d="M60.462 28.016c-.002-.009-5.175-21.365-5.175-21.365C54.926 4.303 52.694 0 46.688 0c-.829 0-1.5.671-1.5 1.5s.671 1.5 1.5 1.5c4.856 0 5.575 3.729 5.639 4.143l4.767 19.701h-2.073c-.742-5.927-5.802-10.531-11.927-10.531s-11.186 4.604-11.927 10.531h-1.82c-.741-5.927-5.802-10.531-11.927-10.531S6.235 20.917 5.493 26.844H3.42L8.187 7.143C8.25 6.729 8.97 3 13.826 3c.829 0 1.5-.671 1.5-1.5s-.671-1.5-1.5-1.5C7.82 0 5.588 4.303 5.227 6.651c0 0-5.173 21.356-5.175 21.365-.266 1.109.531 1.826 1.426 1.826.012 0 .023.004.036.004h3.982c.741 5.926 5.802 10.53 11.927 10.53s11.185-4.604 11.927-10.53h1.814c.742 5.926 5.802 10.53 11.927 10.53s11.186-4.604 11.927-10.53H59c.012 0 .023-.004.036-.004.895 0 1.692-.717 1.426-1.826zm-34.147 1.828c-.715 4.272-4.421 7.531-8.896 7.531s-8.18-3.259-8.896-7.531c-.082-.488-.135-.988-.135-1.5s.053-1.011.135-1.5c.715-4.271 4.421-7.531 8.896-7.531s8.18 3.26 8.896 7.531c.082.489.135.988.135 1.5s-.053 1.011-.135 1.5zm25.675 0c-.716 4.272-4.421 7.531-8.896 7.531-4.475 0-8.181-3.259-8.896-7.531-.082-.488-.135-.988-.135-1.5s.053-1.011.135-1.5c.716-4.271 4.421-7.531 8.896-7.531 4.475 0 8.181 3.26 8.896 7.531.082.489.135.988.135 1.5s-.053 1.011-.135 1.5z"/>
  </symbol>

  <symbol id="twitter" viewBox="0 0 17.5 14.663">
    <path fill-rule="evenodd" clip-rule="evenodd" d="M11.283.153c1.736-.485 3.074.263 3.685 1.151.694-.226 1.372-.47 2.072-.691-.004.841-.538 1.478-.883 1.727.704.166 1.343-.48 1.343-.48-.175.976-1.035 1.746-1.611 1.977-.239 6.592-3.272 10.956-10.382 10.823h-.46c-.422 0-4.29-.45-5.047-1.843 2.341.192 4.011-.412 4.835-1.15-.989-.293-2.761-.464-3.07-2.881.362.105.583.223 1.228.117C1.757 8.067.385 7.366.461 5.218c.294.32 1.1.523 1.381.461C1.117 5.444-.188 2.398.921.843 2.794 2.654 4.769 4.364 8.29 4.528 8.506 2.288 9.461.787 11.283.153z"/>
  </symbol>

  <symbol id="facebook" viewBox="0 0 8.673 18.944">
    <path d="M6.275 3.357h2.398V0H5.795C2.656.181 1.54 2.387 1.948 6.115H0v3.517h1.958v9.312h3.837V9.632h2.857V6.115H5.786c-.021-1.045-.036-2.406.489-2.758z"/>
  </symbol>

  <symbol id="youtube" viewBox="0 0 14.64 13.96">
    <path d="M1.775 13.78C.799 14.257 0 13.758 0 12.671V1.29C0 .202.799-.295 1.775.181l12.133 5.932c.975.478.975 1.258 0 1.736L1.775 13.78z"/>
  </symbol>

  <symbol id="heart" viewBox="521.939 473.064 13 12">
    <path fill="#d22856" d="M528.174 485.055c-.212 0-.412-.091-.552-.249-3.798-4.324-4.644-5.298-4.858-5.572h-.004c-.529-.675-.821-1.518-.821-2.373 0-2.095 1.704-3.799 3.799-3.799.934 0 1.804.32 2.484.898.696-.578 1.56-.898 2.463-.898 2.095 0 3.799 1.704 3.799 3.799 0 .909-.318 1.754-.896 2.381l-4.86 5.561c-.141.161-.342.252-.554.252zm-4.245-6.706c.208.255 2.471 2.839 4.243 4.858l4.323-4.944c.34-.369.52-.86.52-1.399 0-1.285-1.045-2.331-2.33-2.331-.729 0-1.421.344-1.9.943-.142.178-.353.267-.585.275-.227-.003-.439-.111-.575-.294-.441-.587-1.129-.925-1.887-.925-1.285 0-2.33 1.046-2.33 2.331 0 .678.275 1.171.507 1.467.004.006.01.012.014.019z"/>
  </symbol>

  <symbol id="logo-htmlacademy" viewBox="0 0 27 34">
    <path d="M13.62.017L13.472 0 0 1.412v24.661l13.472 8.017 13.43-7.99.042-.026V1.412L13.62.017zm11.399 12.11L13.495 5.334l-.001-.104-.087.05-.088-.056v.109L1.925 12.118V3.147l11.547-1.212 11.547 1.212v8.98zm-11.614-5.34L24.923 13.5l-4.479 2.64-7.093-4.221-.013 1.415 5.904 3.513-.86.507-5.031-2.992-.013 1.415 3.827 2.275-.782.523-3.032-1.787-.013 1.413 1.852 1.091-1.8 1.081-11.356-6.751 11.371-6.835zm-11.48 8.34l11.411 6.791.015 1.044-7.941-4.728-.015 1.416 7.979 4.796.017 1.076-7.972-4.741-.013 1.415 8.021 4.821.045.026 8.143-4.872v-1.268l-.011-.148v-3.761l3.415-2.036v10.02L13.472 31.85 1.925 24.979v-9.852z"/>
  </symbol>

  <symbol id="crop" viewBox="0 0 48 48">
    <path d="M34 30h4V14c0-2.21-1.79-4-4-4H18v4h16v16zm-20 4V2h-4v8H2v4h8v20c0 2.21 1.79 4 4 4h20v8h4v-8h8v-4H14z"/>
  </symbol>

  <symbol id="fill" viewBox="0 0 48 48">
    <path d="M33.12 17.88L15.24 0l-2.83 2.83 4.76 4.76L6.88 17.88c-1.17 1.17-1.17 3.07 0 4.24l11 11c.58.59 1.35.88 2.12.88s1.54-.29 2.12-.88l11-11c1.17-1.17 1.17-3.07 0-4.24zM10.41 20L20 10.42 29.59 20H10.41zM38 23s-4 4.33-4 7c0 2.21 1.79 4 4 4s4-1.79 4-4c0-2.67-4-7-4-7zM0 40h48v3H0z"/>
  </symbol>

  <symbol id="contrast" viewBox="-35.422 -7.96 32 32">
    <path d="M-19.462-3.96c6.595 0 11.96 5.365 11.96 11.96s-5.365 11.96-11.96 11.96-11.96-5.365-11.96-11.96 5.365-11.96 11.96-11.96m0-4c-8.814 0-15.96 7.145-15.96 15.96 0 8.813 7.146 15.96 15.96 15.96S-3.502 16.813-3.502 8c0-8.815-7.146-15.96-15.96-15.96z"/>
    <path d="M-19.462 16.331c4.706 0 8.52-3.813 8.52-8.52 0-4.705-3.813-8.519-8.52-8.519"/>
  </symbol>



</svg>
